<svg data-v-fde0c5aa="" xmlns="http://www.w3.org/2000/svg" viewBox="0 0 300 300" class="iconAbove"><!----><defs data-v-fde0c5aa=""><linearGradient data-v-fde0c5aa="" gradientTransform="rotate(25)" id="e0b716df-25e4-4ee0-9840-26d89b184030" x1="0%" y1="0%" x2="100%" y2="0%"><stop data-v-fde0c5aa="" offset="0%" stop-color="#5106FF" stop-opacity="1"></stop><stop data-v-fde0c5aa="" offset="100%" stop-color="#61CBF2" stop-opacity="1"></stop></linearGradient></defs><rect data-v-fde0c5aa="" fill="url(#e0b716df-25e4-4ee0-9840-26d89b184030)" x="0" y="0" width="300px" height="300px" class="logo-background-square"></rect><defs data-v-fde0c5aa=""><!----></defs><g data-v-fde0c5aa="" id="2515350e-ce40-44c6-ade1-4dc835cfb680" fill="#ffffff" transform="matrix(4.321090101853112,0,0,4.321090101853112,19.697523659387837,177.42944870747576)"><path d="M0.07 12.29L3.81 2.69L5.77 2.69L9.49 12.29L7.84 12.29L6.96 9.95L2.53 9.95L1.67 12.29L0.07 12.29ZM3.02 8.62L6.45 8.62L5.40 5.81L4.77 4.02L4.70 4.02L4.09 5.78L3.02 8.62ZM10.53 14.71L10.53 4.93L11.68 4.93L11.82 5.91L11.91 5.91L11.91 5.91Q12.26 5.35 12.86 5.05L12.86 5.05L12.86 5.05Q13.45 4.76 14.18 4.76L14.18 4.76L14.18 4.76Q15.58 4.76 16.34 5.71L16.34 5.71L16.34 5.71Q17.09 6.65 17.09 8.61L17.09 8.61L17.09 8.61Q17.09 10.54 16.34 11.50L16.34 11.50L16.34 11.50Q15.58 12.46 14.28 12.46L14.28 12.46L14.28 12.46Q12.75 12.46 12.05 11.45L12.05 11.45L11.97 11.45L11.97 14.71L10.53 14.71ZM13.78 11.24L13.78 11.24Q14.77 11.24 15.19 10.65L15.19 10.65L15.19 10.65Q15.61 10.07 15.61 8.69L15.61 8.69L15.61 8.57L15.61 8.57Q15.61 7.17 15.19 6.57L15.19 6.57L15.19 6.57Q14.77 5.98 13.78 5.98L13.78 5.98L13.78 5.98Q12.84 5.98 12.40 6.64L12.40 6.64L12.40 6.64Q11.97 7.29 11.97 8.57L11.97 8.57L11.97 8.68L11.97 8.68Q11.97 9.94 12.40 10.59L12.40 10.59L12.40 10.59Q12.84 11.24 13.78 11.24L13.78 11.24ZM18.55 14.71L18.55 4.93L19.70 4.93L19.84 5.91L19.94 5.91L19.94 5.91Q20.29 5.35 20.88 5.05L20.88 5.05L20.88 5.05Q21.48 4.76 22.20 4.76L22.20 4.76L22.20 4.76Q23.60 4.76 24.36 5.71L24.36 5.71L24.36 5.71Q25.12 6.65 25.12 8.61L25.12 8.61L25.12 8.61Q25.12 10.54 24.36 11.50L24.36 11.50L24.36 11.50Q23.60 12.46 22.30 12.46L22.30 12.46L22.30 12.46Q20.78 12.46 20.08 11.45L20.08 11.45L19.99 11.45L19.99 14.71L18.55 14.71ZM21.80 11.24L21.80 11.24Q22.79 11.24 23.21 10.65L23.21 10.65L23.21 10.65Q23.63 10.07 23.63 8.69L23.63 8.69L23.63 8.57L23.63 8.57Q23.63 7.17 23.21 6.57L23.21 6.57L23.21 6.57Q22.79 5.98 21.80 5.98L21.80 5.98L21.80 5.98Q20.86 5.98 20.43 6.64L20.43 6.64L20.43 6.64Q19.99 7.29 19.99 8.57L19.99 8.57L19.99 8.68L19.99 8.68Q19.99 9.94 20.43 10.59L20.43 10.59L20.43 10.59Q20.86 11.24 21.80 11.24L21.80 11.24ZM34.82 12.46L34.82 12.46Q32.52 12.46 31.33 11.23L31.33 11.23L31.33 11.23Q30.14 10.00 30.14 7.49L30.14 7.49L30.14 7.49Q30.14 5.00 31.33 3.76L31.33 3.76L31.33 3.76Q32.52 2.52 34.82 2.52L34.82 2.52L34.82 2.52Q36.69 2.52 37.85 3.46L37.85 3.46L37.85 3.46Q39.00 4.40 39.00 6.19L39.00 6.19L37.42 6.19L37.42 6.19Q37.42 5.05 36.72 4.44L36.72 4.44L36.72 4.44Q36.02 3.84 34.83 3.84L34.83 3.84L34.83 3.84Q33.25 3.84 32.50 4.70L32.50 4.70L32.50 4.70Q31.75 5.56 31.74 7.41L31.74 7.41L31.74 7.56L31.74 7.56Q31.74 9.42 32.49 10.28L32.49 10.28L32.49 10.28Q33.25 11.14 34.83 11.14L34.83 11.14L34.83 11.14Q36.06 11.14 36.77 10.55L36.77 10.55L36.77 10.55Q37.48 9.95 37.48 8.82L37.48 8.82L39.00 8.82L39.00 8.82Q39.00 10.63 37.86 11.54L37.86 11.54L37.86 11.54Q36.71 12.46 34.82 12.46L34.82 12.46ZM40.57 12.29L40.57 4.93L41.73 4.93L41.87 6.06L41.96 6.06L41.96 6.06Q42.46 4.76 43.65 4.76L43.65 4.76L43.65 4.76Q43.90 4.76 44.09 4.81L44.09 4.81L44.09 4.81Q44.28 4.86 44.34 4.87L44.34 4.87L44.34 6.24L43.82 6.24L43.82 6.24Q42.99 6.24 42.50 6.72L42.50 6.72L42.50 6.72Q42.01 7.20 42.01 8.18L42.01 8.18L42.01 12.29L40.57 12.29ZM47.38 12.46L47.38 12.46Q46.47 12.46 45.73 12.01L45.73 12.01L45.73 12.01Q45.00 11.56 45.00 10.39L45.00 10.39L45.00 10.39Q45.00 8.97 46.23 8.43L46.23 8.43L46.23 8.43Q47.46 7.88 49.76 7.88L49.76 7.88L49.76 7.15L49.76 7.15Q49.76 6.55 49.44 6.24L49.44 6.24L49.44 6.24Q49.13 5.92 48.27 5.92L48.27 5.92L48.27 5.92Q47.45 5.92 47.10 6.22L47.10 6.22L47.10 6.22Q46.76 6.51 46.76 6.93L46.76 6.93L46.76 7.11L45.36 7.11L45.36 7.11Q45.35 7.03 45.35 6.80L45.35 6.80L45.35 6.80Q45.35 5.84 46.16 5.30L46.16 5.30L46.16 5.30Q46.97 4.76 48.33 4.76L48.33 4.76L48.33 4.76Q49.76 4.76 50.48 5.35L50.48 5.35L50.48 5.35Q51.20 5.94 51.20 7.01L51.20 7.01L51.20 10.78L51.20 10.78Q51.20 11.03 51.34 11.15L51.34 11.15L51.34 11.15Q51.48 11.27 51.69 11.27L51.69 11.27L52.19 11.27L52.19 12.24L52.19 12.24Q51.83 12.42 51.20 12.42L51.20 12.42L51.20 12.42Q50.69 12.42 50.35 12.14L50.35 12.14L50.35 12.14Q50.01 11.87 49.90 11.40L49.90 11.40L49.80 11.40L49.80 11.40Q49.41 11.90 48.80 12.18L48.80 12.18L48.80 12.18Q48.19 12.46 47.38 12.46L47.38 12.46ZM47.80 11.28L47.80 11.28Q48.62 11.28 49.19 10.79L49.19 10.79L49.19 10.79Q49.76 10.29 49.76 9.42L49.76 9.42L49.76 8.97L49.76 8.97Q48.16 8.97 47.32 9.25L47.32 9.25L47.32 9.25Q46.48 9.52 46.48 10.28L46.48 10.28L46.48 10.28Q46.48 10.79 46.81 11.04L46.81 11.04L46.81 11.04Q47.14 11.28 47.80 11.28L47.80 11.28ZM53.49 12.29L53.49 6.12L52.43 6.12L52.43 4.93L53.49 4.93L53.49 3.85L53.49 3.85Q53.49 3.08 53.89 2.57L53.89 2.57L53.89 2.57Q54.29 2.06 55.22 2.06L55.22 2.06L55.22 2.06Q55.50 2.06 55.80 2.11L55.80 2.11L55.80 2.11Q56.11 2.17 56.32 2.24L56.32 2.24L56.32 3.25L55.61 3.25L55.61 3.25Q54.94 3.25 54.94 3.89L54.94 3.89L54.94 4.93L56.32 4.93L56.32 6.12L54.94 6.12L54.94 12.29L53.49 12.29ZM59.15 12.45L59.15 12.45Q58.31 12.45 57.93 11.96L57.93 11.96L57.93 11.96Q57.55 11.48 57.55 10.77L57.55 10.77L57.55 6.12L56.66 6.12L56.66 4.93L57.57 4.93L57.85 2.87L59.00 2.87L59.00 4.93L60.24 4.93L60.24 6.12L59.00 6.12L59.00 10.63L59.00 10.63Q59.00 11.27 59.60 11.27L59.60 11.27L60.24 11.27L60.24 12.25L60.24 12.25Q60.06 12.33 59.74 12.39L59.74 12.39L59.74 12.39Q59.43 12.45 59.15 12.45L59.15 12.45Z"></path></g><defs data-v-fde0c5aa=""><!----></defs><g data-v-fde0c5aa="" id="8df3de44-c41e-4673-bf88-fb9f3ae5dcbb" stroke="none" fill="#ffffff" transform="matrix(3.4163617587548,0,0,3.4163617587548,95.3382118599232,59.007317789884794)"><path d="M9.382 8.675h13.943v13.943L32 31.293V0H.707zM22.618 23.325H8.675V9.382L0 .707V32h31.293z"></path></g><!----></svg>