<svg data-v-fde0c5aa="" xmlns="http://www.w3.org/2000/svg" viewBox="0 0 300 300" class="iconAbove"><!----><defs data-v-fde0c5aa=""><!----></defs><rect data-v-fde0c5aa="" fill="#D2EAF5" x="0" y="0" width="300px" height="300px" class="logo-background-square"></rect><defs data-v-fde0c5aa=""><!----></defs><g data-v-fde0c5aa="" id="619280fd-3c59-44e8-a848-89a1f08f2335" fill="#022239" transform="matrix(3.678551200868637,0,0,3.678551200868637,16.17430689142221,174.76259243071343)"><path d="M1.04 10.50L7.20 10.50L7.20 8.82L2.97 8.82L2.97 6.54L6.36 6.54L6.36 4.89L2.97 4.89L2.97 2.66L7.20 2.66L7.20 0.98L1.04 0.98ZM8.71 10.50L10.58 10.50L10.58 0.70L8.71 0.70ZM15.36 9.02C14.35 9.02 13.96 8.64 13.94 7.80L18.06 7.80L18.20 6.50C18.20 4.38 17.21 3.33 15.15 3.33C13.10 3.33 12.05 4.61 12.05 7.10C12.05 9.62 12.95 10.67 15.06 10.67C16.37 10.67 17.98 10.28 17.98 10.28L17.95 8.89C17.95 8.89 16.51 9.02 15.36 9.02ZM13.93 6.37C13.94 5.31 14.25 4.87 15.15 4.87C16.03 4.87 16.35 5.24 16.35 6.37ZM22.16 3.33C20.08 3.33 19.21 4.45 19.21 6.93C19.21 9.56 20.03 10.67 22.12 10.67C22.90 10.67 24.40 10.37 24.40 10.37L24.35 8.88C24.35 8.88 23.25 8.99 22.72 8.99C21.38 8.99 21.11 8.50 21.11 6.93C21.11 5.53 21.36 5.01 22.71 5.01C23.24 5.01 24.35 5.12 24.35 5.12L24.40 3.64C24.40 3.64 22.97 3.33 22.16 3.33ZM29.67 5.10L29.67 3.50L27.94 3.50L27.94 1.55L26.07 1.55L26.07 3.50L25.24 3.50L25.24 5.10L26.07 5.10L26.07 8.01C26.07 10.02 26.56 10.67 28.25 10.67C28.74 10.67 29.68 10.46 29.68 10.46L29.60 8.96C29.60 8.96 28.92 8.99 28.53 8.99C27.94 8.99 27.94 8.67 27.94 7.97L27.94 5.10ZM30.88 10.50L32.76 10.50L32.76 5.81C32.76 5.81 33.75 5.46 34.99 5.22L34.99 3.33C33.92 3.54 32.75 4.24 32.75 4.24L32.75 3.50L30.88 3.50ZM38.95 3.33C36.51 3.33 35.73 4.83 35.73 6.99C35.73 9.14 36.51 10.67 38.95 10.67C41.38 10.67 42.17 9.14 42.17 6.99C42.17 4.83 41.38 3.33 38.95 3.33ZM38.95 9.07C37.91 9.07 37.63 8.34 37.63 6.99C37.63 5.63 37.91 4.93 38.95 4.93C39.98 4.93 40.26 5.63 40.26 6.99C40.26 8.34 39.98 9.07 38.95 9.07ZM43.62 10.50L45.56 10.50L45.56 3.14L45.77 3.14L47.63 10.08L49.56 10.08L51.42 3.14L51.63 3.14L51.63 10.50L53.56 10.50L53.56 0.98L50.27 0.98L48.59 7.92L46.91 0.98L43.62 0.98ZM60.83 5.68C60.83 4.05 60.10 3.33 58.28 3.33C56.94 3.33 55.44 3.74 55.44 3.74L55.50 5.04C55.50 5.04 57.20 4.93 58.13 4.93C58.69 4.93 58.95 5.08 58.95 5.68L58.95 6.12L57.46 6.23C55.92 6.34 55.01 6.79 55.01 8.37C55.01 9.86 55.71 10.67 57.18 10.67C58.23 10.67 59.23 10.18 59.23 10.18C59.82 10.57 60.30 10.67 61.24 10.67L61.29 9.25C60.91 9.18 60.86 9.02 60.83 8.60ZM58.95 7.42L58.95 8.92C58.95 8.92 58.18 9.14 57.58 9.14C57.08 9.14 56.90 8.81 56.90 8.32C56.90 7.81 57.19 7.57 57.68 7.53ZM62.62 10.50L64.50 10.50L64.50 5.81C64.50 5.81 65.49 5.46 66.72 5.22L66.72 3.33C65.66 3.54 64.48 4.24 64.48 4.24L64.48 3.50L62.62 3.50ZM71.71 5.10L71.71 3.50L69.99 3.50L69.99 1.55L68.11 1.55L68.11 3.50L67.28 3.50L67.28 5.10L68.11 5.10L68.11 8.01C68.11 10.02 68.60 10.67 70.29 10.67C70.78 10.67 71.72 10.46 71.72 10.46L71.64 8.96C71.64 8.96 70.97 8.99 70.57 8.99C69.99 8.99 69.99 8.67 69.99 7.97L69.99 5.10Z"></path></g><defs data-v-fde0c5aa=""><linearGradient data-v-fde0c5aa="" gradientTransform="rotate(25)" id="c20d325f-dbaa-4518-82be-e54df89496ed" x1="0%" y1="0%" x2="100%" y2="0%"><stop data-v-fde0c5aa="" offset="0%" stop-color="#000A68" stop-opacity="1"></stop><stop data-v-fde0c5aa="" offset="100%" stop-color="#00C4EE" stop-opacity="1"></stop></linearGradient></defs><g data-v-fde0c5aa="" id="0acf54a8-b28e-4046-ba52-883cc8de8694" stroke="none" fill="url(#c20d325f-dbaa-4518-82be-e54df89496ed)" transform="matrix(0.8730660773794438,0,0,0.8730660773794438,106.33153494080126,79.02416585737018)"><path d="M52.135 49.287a2.256 2.256 0 0 0-1.426-1.423L26.847 39.91a2.256 2.256 0 0 0-2.305.542l-7.954 7.956a2.252 2.252 0 0 0 .879 3.725l22.798 7.596 7.598 22.803A2.256 2.256 0 0 0 50 84.071c.588 0 1.164-.234 1.589-.659l7.959-7.954a2.258 2.258 0 0 0 .542-2.305l-7.955-23.866zm-1.153 28.367L44.18 57.239a2.258 2.258 0 0 0-1.426-1.421l-20.41-6.802 4.397-4.399 21.477 7.16 7.163 21.479-4.399 4.398z"></path><path d="M68.043 33.377a2.26 2.26 0 0 0-1.421-1.424l-23.867-7.954a2.268 2.268 0 0 0-2.3.545l-7.959 7.954a2.248 2.248 0 0 0 .879 3.725l22.803 7.598 7.598 22.798a2.245 2.245 0 0 0 2.134 1.538c.591 0 1.165-.229 1.592-.659l7.954-7.954a2.258 2.258 0 0 0 .542-2.305l-7.955-23.862zm-1.152 28.364l-6.802-20.41a2.262 2.262 0 0 0-1.421-1.421l-20.415-6.805 4.399-4.396 21.479 7.158 7.158 21.477-4.398 4.397z"></path><path d="M83.956 17.469a2.254 2.254 0 0 0-1.426-1.426L58.668 8.089a2.267 2.267 0 0 0-2.305.544l-7.954 7.957a2.24 2.24 0 0 0-.601 2.104 2.254 2.254 0 0 0 1.479 1.621l22.798 7.598 7.598 22.798a2.258 2.258 0 0 0 2.137 1.538c.588 0 1.164-.232 1.589-.659l7.954-7.954a2.253 2.253 0 0 0 .547-2.305l-7.954-23.862zm-1.152 28.364l-6.807-20.41a2.26 2.26 0 0 0-1.421-1.424l-20.412-6.804 4.399-4.397 21.477 7.161 7.158 21.477-4.394 4.397zM35.68 64.319a2.252 2.252 0 0 0-3.184 0L8.634 88.182a2.252 2.252 0 0 0 3.184 3.184L35.68 67.498a2.246 2.246 0 0 0 0-3.179zM15.792 71.478l7.954-7.954c.879-.879.879-2.305 0-3.184s-2.3-.879-3.179 0l-7.954 7.954a2.252 2.252 0 0 0 1.59 3.843c.576 0 1.15-.22 1.589-.659zM36.476 76.248l-7.954 7.959a2.246 2.246 0 0 0 0 3.179c.439.439 1.014.659 1.59.659s1.149-.22 1.589-.659l7.959-7.954a2.252 2.252 0 0 0-3.184-3.184z"></path></g><!----></svg>