<?xml version="1.0" encoding="iso-8859-1"?>
<!-- Uploaded to: SVG Repo, www.svgrepo.com, Generator: SVG Repo Mixer Tools -->
<svg height="800px" width="800px" version="1.1" id="Layer_1" xmlns="http://www.w3.org/2000/svg" xmlns:xlink="http://www.w3.org/1999/xlink" 
	 viewBox="0 0 392.68 392.68" xml:space="preserve">
<path style="fill:#56ACE0;" d="M29.94,89.406h263.628c4.461,0,8.016-3.62,8.016-8.016V29.996c0-4.461-3.62-8.016-8.016-8.016H29.94
	c-4.461,0-8.016,3.62-8.016,8.016V81.39C21.859,85.786,25.479,89.406,29.94,89.406z"/>
<path style="fill:#FFC10D;" d="M29.94,178.618h247.014c7.822-7.37,12.671-13.705,15.58-17.455l0,0
	c2.327-3.038,5.624-4.59,9.051-4.848v-37.107c0-4.461-3.62-8.016-8.016-8.016H29.94c-4.461,0-8.016,3.62-8.016,8.016v51.394
	C21.859,174.998,25.479,178.618,29.94,178.618z"/>
<path style="fill:#56ACE0;" d="M213.213,267.96v-45.188c0-4.59,2.844-8.663,7.111-10.214c10.02-3.685,18.683-7.822,26.376-12.024
	H29.94c-4.461,0-8.016,3.62-8.016,8.016v51.394c0,4.396,3.62,8.016,8.016,8.016H213.213L213.213,267.96z"/>
<path style="fill:#FFFFFF;" d="M370.821,230.206c-36.719-14.998-57.018-34.392-67.943-47.063
	c-10.925,12.606-31.224,32.065-67.943,47.063v12.024h40.598c6.012,0,10.925,4.848,10.925,10.925c0,6.012-4.848,10.925-10.925,10.925
	h-40.598v19.394h14.869c6.012,0,10.925,4.848,10.925,10.925c0,6.012-4.848,10.925-10.925,10.925h-14.869v3.814
	c0,26.764,46.739,51.976,67.943,60.962c22.109-9.244,67.943-34.069,67.943-60.962V230.206z"/>
<path style="fill:#56ACE0;" d="M302.877,346.117c-25.471-12.218-46.158-29.543-46.158-37.107v-64.582
	c20.105-9.632,35.103-20.428,46.158-30.19c11.055,9.826,26.053,20.558,46.158,30.19v64.582
	C349.035,316.509,328.413,333.899,302.877,346.117z"/>
<g>
	<path style="fill:#194F82;" d="M52.178,66.521h6.206c6.012,0,10.925-4.848,10.925-10.925c0-6.012-4.848-10.925-10.925-10.925
		h-6.206c-6.012,0-10.925,4.848-10.925,10.925S46.101,66.521,52.178,66.521z"/>
	<path style="fill:#194F82;" d="M95.556,66.521h6.206c6.012,0,10.925-4.848,10.925-10.925c0-6.012-4.848-10.925-10.925-10.925
		h-6.206c-6.012,0-10.925,4.848-10.925,10.925C84.695,61.673,89.544,66.521,95.556,66.521z"/>
	<path style="fill:#194F82;" d="M138.934,66.521h6.206c6.012,0,10.925-4.848,10.925-10.925c0-6.012-4.848-10.925-10.925-10.925
		h-6.206c-6.012,0-10.925,4.848-10.925,10.925S132.922,66.521,138.934,66.521z"/>
	<path style="fill:#194F82;" d="M58.32,133.947h-6.141c-6.012,0-10.925,4.848-10.925,10.925c0,6.012,4.848,10.925,10.925,10.925
		h6.206c6.012,0,10.925-4.848,10.925-10.925C69.245,138.861,64.332,133.947,58.32,133.947z"/>
	<path style="fill:#194F82;" d="M101.762,133.947h-6.206c-6.012,0-10.925,4.848-10.925,10.925c0,6.012,4.848,10.925,10.925,10.925
		h6.206c6.012,0,10.925-4.848,10.925-10.925C112.623,138.861,107.774,133.947,101.762,133.947z"/>
	<path style="fill:#194F82;" d="M145.14,133.947h-6.206c-6.012,0-10.925,4.848-10.925,10.925c0,6.012,4.848,10.925,10.925,10.925
		h6.206c6.012,0,10.925-4.848,10.925-10.925C156,138.861,151.152,133.947,145.14,133.947z"/>
	<path style="fill:#194F82;" d="M58.32,223.289h-6.141c-6.012,0-10.925,4.848-10.925,10.925c0,6.012,4.848,10.925,10.925,10.925
		h6.206c6.012,0,10.925-4.848,10.925-10.925C69.245,228.137,64.332,223.289,58.32,223.289z"/>
	<path style="fill:#194F82;" d="M101.762,223.289h-6.206c-6.012,0-10.925,4.848-10.925,10.925c0,6.012,4.848,10.925,10.925,10.925
		h6.206c6.012,0,10.925-4.848,10.925-10.925C112.623,228.137,107.774,223.289,101.762,223.289z"/>
	<path style="fill:#194F82;" d="M145.14,223.289h-6.206c-6.012,0-10.925,4.848-10.925,10.925c0,6.012,4.848,10.925,10.925,10.925
		h6.206c6.012,0,10.925-4.848,10.925-10.925C156,228.137,151.152,223.289,145.14,223.289z"/>
	<path style="fill:#194F82;" d="M385.495,212.493c-32.065-11.895-51.071-27.604-62.061-39.176v-54.109
		c0-7.176-2.521-13.834-6.788-18.941c4.267-5.172,6.788-11.766,6.788-18.941V29.931C323.435,13.446,310.053,0,293.503,0H29.94
		C13.39,0,0.008,13.382,0.008,29.931v51.394c0,7.176,2.521,13.834,6.788,18.941c-4.267,5.107-6.788,11.766-6.788,18.941v51.394
		c0,7.176,2.521,13.834,6.788,18.941c-4.267,5.172-6.788,11.83-6.788,19.006v51.394c0,16.485,13.382,29.931,29.931,29.931h183.208
		v19.135c0,48.614,77.059,79.58,85.85,82.941c2.457,0.905,5.107,1.034,7.822,0c8.792-3.426,85.851-34.392,85.851-82.941v-86.303
		C392.606,218.117,389.762,214.109,385.495,212.493z M276.954,178.618H30.004c-4.461,0-8.016-3.62-8.016-8.016v-51.394
		c0-4.461,3.62-8.016,8.016-8.016h263.628c4.461,0,8.016,3.62,8.016,8.016v37.107c-3.426,0.323-6.723,1.939-9.051,4.848l0,0
		C289.625,164.978,284.712,171.313,276.954,178.618z M21.859,29.931c0-4.461,3.62-8.016,8.016-8.016h263.628
		c4.461,0,8.016,3.62,8.016,8.016v51.394c0,4.396-3.62,8.016-8.016,8.016H29.94c-4.461,0-8.016-3.62-8.016-8.016V29.931H21.859z
		 M29.94,267.96c-4.461,0-8.016-3.62-8.016-8.016v-51.394c0-4.396,3.62-8.016,8.016-8.016h216.566
		c-7.628,4.267-16.291,8.339-26.376,12.024c-4.267,1.616-7.111,5.624-7.111,10.214v45.188H29.94L29.94,267.96z M370.821,308.945
		c0,26.893-45.834,51.717-67.943,60.962c-21.204-8.986-67.943-34.263-67.943-60.962v-3.814h14.869
		c6.012,0,10.925-4.849,10.925-10.925c0-6.012-4.848-10.925-10.925-10.925h-14.869v-19.394h40.598
		c6.012,0,10.925-4.849,10.925-10.925c0-6.012-4.848-10.925-10.925-10.925h-40.598v-12.024
		c36.719-14.933,57.083-34.327,67.943-46.998c10.925,12.606,31.224,32.065,67.943,47.063L370.821,308.945L370.821,308.945z"/>
</g>
</svg>